<svg height="512" viewBox="0 0 64 64" width="512" xmlns="http://www.w3.org/2000/svg"><g id="_04-Evaluation" data-name="04-Evaluation"><path d="m17 64a1 1 0 0 1 -.707-.293l-12-12a1 1 0 0 1 .707-1.707h12a1 1 0 0 1 1 1v12a1 1 0 0 1 -1 1zm-9.586-12 8.586 8.586v-8.586z"/><path d="m54 64h-37a1 1 0 0 1 -.707-.293l-12-12a1 1 0 0 1 -.293-.707v-50a1 1 0 0 1 1-1h50a1 1 0 0 1 1 1v45h-2v-44h-48v48.586l11.414 11.414h36.586z"/><path d="m58 64a1 1 0 0 1 -.707-.293l-11-11a1 1 0 0 1 0-1.414l5-5a1 1 0 0 1 1.414 0l11 11a1 1 0 0 1 0 1.414l-5 5a1 1 0 0 1 -.707.293zm-9.586-12 9.586 9.586 3.586-3.586-9.586-9.586z"/><path d="m45 43.757h2v8.485h-2z" transform="matrix(.707 -.707 .707 .707 -20.468 46.586)"/><path d="m47 41.757h2v8.485h-2z" transform="matrix(.707 -.707 .707 .707 -18.468 47.414)"/><path d="m48.964 51.5h7.071v2h-7.071z" transform="matrix(.707 -.707 .707 .707 -21.746 52.5)"/><path d="m30 51a21 21 0 1 1 21-21 21.024 21.024 0 0 1 -21 21zm0-40a19 19 0 1 0 19 19 19.021 19.021 0 0 0 -19-19z"/><path d="m30 46a16 16 0 1 1 16-16 16.019 16.019 0 0 1 -16 16zm0-30a14 14 0 1 0 14 14 14.015 14.015 0 0 0 -14-14z"/><path d="m17 12h-8a1 1 0 0 1 -1-1v-6a1 1 0 0 1 1-1h8a1 1 0 0 1 1 1v6a1 1 0 0 1 -1 1zm-7-2h6v-4h-6z"/><path d="m10 22h-1a1 1 0 0 1 -1-1v-6a1 1 0 0 1 1-1h4v2h-3z"/><path d="m20 4h2v2h-2z"/><path d="m24 4h27v2h-27z"/><path d="m20 58h2v2h-2z"/><path d="m24 58h18v2h-18z"/><path d="m20 54h18v2h-18z"/><path d="m27 38a1 1 0 0 1 -.707-.293l-5-5a1 1 0 0 1 0-1.414l3-3a1 1 0 0 1 1.414 0l1.293 1.293 7.293-7.293a1 1 0 0 1 1.414 0l3 3a1 1 0 0 1 0 1.414l-11 11a1 1 0 0 1 -.707.293zm-3.586-6 3.586 3.586 9.586-9.586-1.586-1.586-7.293 7.293a1 1 0 0 1 -1.414 0l-1.293-1.293z"/></g></svg>